<svg width="34" height="34" viewBox="0 0 34 34" fill="none" xmlns="http://www.w3.org/2000/svg">
<mask id="mask0_13_15" style="mask-type:luminance" maskUnits="userSpaceOnUse" x="0" y="0" width="34" height="34">
<path fill-rule="evenodd" clip-rule="evenodd" d="M8.84345 2H9.50779C13.0064 2.54474 13.9549 4.63526 17.0037 4.63526C20.0524 4.63526 21.001 2.54474 24.5003 2H24.8768C25.8122 2 26.7385 2.19399 27.6027 2.5709C28.4669 2.94781 29.2522 3.50026 29.9136 4.1967C30.5751 4.89314 31.0998 5.71993 31.4578 6.62987C31.8158 7.53982 32 8.51509 32 9.5V9.99421C32 12.2861 29.6831 14.9024 29.0007 17.3813C28.2772 20.0134 27.7815 22.1655 27.6361 24.4163C27.2949 29.6908 25.5868 32 23.752 32C21.0122 32 18.5798 20.1776 17.0509 20.1776C15.5213 20.1776 12.4883 32 10.2554 32C8.89294 32 7.12863 31.1513 6.46579 24.4163C6.20186 21.7368 5.75647 20.1113 5.00665 17.3813C4.34681 14.9813 2.12136 12.1139 2.00739 9.54026C1.9644 8.5669 2.10936 7.59446 2.4335 6.68177C2.75765 5.76908 3.25425 4.93509 3.89327 4.23025C4.53229 3.5254 5.30045 2.96434 6.15129 2.58101C7.00214 2.19767 7.91799 2.00002 8.84345 2Z" fill="white" stroke="white" stroke-width="4"/>
<path d="M10.6167 7.89185L23.0029 12.0966M10.6167 12.0966L23.0029 7.89185" stroke="black" stroke-width="4" stroke-linecap="round"/>
</mask>
<g mask="url(#mask0_13_15)">
<path d="M-0.991852 -1.94739H34.9993V35.9474H-0.991852V-1.94739Z" fill="black"/>
</g>
</svg>
