<svg width="34" height="34" viewBox="0 0 34 34" fill="none" xmlns="http://www.w3.org/2000/svg">
<path d="M9.77501 1.25926C9.77501 0.925283 9.64068 0.604985 9.40157 0.368829C9.16246 0.132672 8.83816 0 8.50001 0C8.16186 0 7.83756 0.132672 7.59845 0.368829C7.35934 0.604985 7.22501 0.925283 7.22501 1.25926V3.9121C4.77701 4.10518 3.17221 4.57867 1.99241 5.74558C0.810908 6.91081 0.331508 8.49748 0.134308 10.9136H33.8657C33.6685 8.4958 33.1891 6.91081 32.0076 5.74558C30.8278 4.57867 29.2213 4.10519 26.775 3.91042V1.25926C26.775 0.925283 26.6407 0.604985 26.4016 0.368829C26.1625 0.132672 25.8382 0 25.5 0C25.1619 0 24.8376 0.132672 24.5984 0.368829C24.3593 0.604985 24.225 0.925283 24.225 1.25926V3.7996C23.0945 3.77778 21.8263 3.77778 20.4 3.77778H13.6C12.1737 3.77778 10.9055 3.77778 9.77501 3.7996V1.25926Z" fill="black"/>
<path fill-rule="evenodd" clip-rule="evenodd" d="M0 17.2099C0 15.8012 1.8999e-08 14.5487 0.0221 13.4321H33.9779C34 14.5487 34 15.8012 34 17.2099V20.5679C34 26.8995 34 30.0661 32.0076 32.0322C30.0152 33.9984 26.8107 34 20.4 34H13.6C7.1893 34 3.9831 34 1.9924 32.0322C0.00169988 30.0644 0 26.8995 0 20.5679V17.2099ZM25.5 20.5679C25.9509 20.5679 26.3833 20.391 26.7021 20.0762C27.0209 19.7613 27.2 19.3342 27.2 18.8889C27.2 18.4436 27.0209 18.0166 26.7021 17.7017C26.3833 17.3868 25.9509 17.2099 25.5 17.2099C25.0491 17.2099 24.6167 17.3868 24.2979 17.7017C23.9791 18.0166 23.8 18.4436 23.8 18.8889C23.8 19.3342 23.9791 19.7613 24.2979 20.0762C24.6167 20.391 25.0491 20.5679 25.5 20.5679ZM25.5 27.284C25.9509 27.284 26.3833 27.1071 26.7021 26.7922C27.0209 26.4773 27.2 26.0503 27.2 25.605C27.2 25.1597 27.0209 24.7326 26.7021 24.4177C26.3833 24.1029 25.9509 23.926 25.5 23.926C25.0491 23.926 24.6167 24.1029 24.2979 24.4177C23.9791 24.7326 23.8 25.1597 23.8 25.605C23.8 26.0503 23.9791 26.4773 24.2979 26.7922C24.6167 27.1071 25.0491 27.284 25.5 27.284ZM18.7 18.8889C18.7 19.3342 18.5209 19.7613 18.2021 20.0762C17.8833 20.391 17.4509 20.5679 17 20.5679C16.5491 20.5679 16.1167 20.391 15.7979 20.0762C15.4791 19.7613 15.3 19.3342 15.3 18.8889C15.3 18.4436 15.4791 18.0166 15.7979 17.7017C16.1167 17.3868 16.5491 17.2099 17 17.2099C17.4509 17.2099 17.8833 17.3868 18.2021 17.7017C18.5209 18.0166 18.7 18.4436 18.7 18.8889ZM18.7 25.605C18.7 26.0503 18.5209 26.4773 18.2021 26.7922C17.8833 27.1071 17.4509 27.284 17 27.284C16.5491 27.284 16.1167 27.1071 15.7979 26.7922C15.4791 26.4773 15.3 26.0503 15.3 25.605C15.3 25.1597 15.4791 24.7326 15.7979 24.4177C16.1167 24.1029 16.5491 23.926 17 23.926C17.4509 23.926 17.8833 24.1029 18.2021 24.4177C18.5209 24.7326 18.7 25.1597 18.7 25.605ZM8.5 20.5679C8.95087 20.5679 9.38327 20.391 9.70208 20.0762C10.0209 19.7613 10.2 19.3342 10.2 18.8889C10.2 18.4436 10.0209 18.0166 9.70208 17.7017C9.38327 17.3868 8.95087 17.2099 8.5 17.2099C8.04913 17.2099 7.61673 17.3868 7.29792 17.7017C6.97911 18.0166 6.8 18.4436 6.8 18.8889C6.8 19.3342 6.97911 19.7613 7.29792 20.0762C7.61673 20.391 8.04913 20.5679 8.5 20.5679ZM8.5 27.284C8.95087 27.284 9.38327 27.1071 9.70208 26.7922C10.0209 26.4773 10.2 26.0503 10.2 25.605C10.2 25.1597 10.0209 24.7326 9.70208 24.4177C9.38327 24.1029 8.95087 23.926 8.5 23.926C8.04913 23.926 7.61673 24.1029 7.29792 24.4177C6.97911 24.7326 6.8 25.1597 6.8 25.605C6.8 26.0503 6.97911 26.4773 7.29792 26.7922C7.61673 27.1071 8.04913 27.284 8.5 27.284Z" fill="black"/>
</svg>
