<svg width="34" height="34" viewBox="0 0 34 34" fill="none" xmlns="http://www.w3.org/2000/svg">
<path fill-rule="evenodd" clip-rule="evenodd" d="M18.2228 0.497742C17.904 0.179038 17.4717 0 17.0209 0C16.5701 0 16.1378 0.179038 15.819 0.497742L3.91899 12.3979L0.51899 15.7979C0.356623 15.9547 0.227113 16.1423 0.138018 16.3497C0.0489224 16.5571 0.00202567 16.7802 6.41864e-05 17.0059C-0.0018973 17.2317 0.0411156 17.4555 0.126593 17.6644C0.212071 17.8734 0.338301 18.0632 0.497919 18.2228C0.657536 18.3824 0.847344 18.5087 1.05627 18.5941C1.26519 18.6796 1.48905 18.7226 1.71477 18.7207C1.9405 18.7187 2.16357 18.6718 2.37098 18.5827C2.57838 18.4936 2.76597 18.3641 2.92279 18.2017L3.42089 17.7036V28.8999C3.42089 30.2526 3.95821 31.5498 4.91465 32.5062C5.87108 33.4627 7.16829 34 8.52089 34H25.5209C26.8735 34 28.1707 33.4627 29.1271 32.5062C30.0836 31.5498 30.6209 30.2526 30.6209 28.8999V17.7036L31.119 18.2017C31.4396 18.5114 31.869 18.6828 32.3148 18.6789C32.7605 18.675 33.1869 18.4962 33.5021 18.181C33.8173 17.8658 33.9961 17.4394 33.9999 16.9937C34.0038 16.548 33.8325 16.1185 33.5228 15.7979L18.2228 0.497742Z" fill="black"/>
</svg>
