<svg width="32" height="32" viewBox="0 0 32 32" fill="none" xmlns="http://www.w3.org/2000/svg">
<path d="M19.6923 23C19.6923 22.7348 19.822 22.4804 20.0528 22.2929C20.2836 22.1054 20.5967 22 20.9231 22C21.2495 22 21.5625 22.1054 21.7934 22.2929C22.0242 22.4804 22.1538 22.7348 22.1538 23C22.1538 23.2652 22.0242 23.5196 21.7934 23.7071C21.5625 23.8946 21.2495 24 20.9231 24C20.5967 24 20.2836 23.8946 20.0528 23.7071C19.822 23.5196 19.6923 23.2652 19.6923 23ZM11.0769 22C10.7505 22 10.4375 22.1054 10.2066 22.2929C9.97582 22.4804 9.84615 22.7348 9.84615 23C9.84615 23.2652 9.97582 23.5196 10.2066 23.7071C10.4375 23.8946 10.7505 24 11.0769 24C11.4033 24 11.7164 23.8946 11.9472 23.7071C12.178 23.5196 12.3077 23.2652 12.3077 23C12.3077 22.7348 12.178 22.4804 11.9472 22.2929C11.7164 22.1054 11.4033 22 11.0769 22ZM0 5C0 3.67392 0.64835 2.40215 1.80242 1.46447C2.95649 0.526784 4.52174 0 6.15385 0H25.8462C27.4783 0 29.0435 0.526784 30.1976 1.46447C31.3517 2.40215 32 3.67392 32 5V27C32 28.3261 31.3517 29.5979 30.1976 30.5355C29.0435 31.4732 27.4783 32 25.8462 32H6.15385C4.52174 32 2.95649 31.4732 1.80242 30.5355C0.64835 29.5979 0 28.3261 0 27V5ZM17.2308 7C17.2308 6.73478 17.1011 6.48043 16.8703 6.29289C16.6395 6.10536 16.3264 6 16 6C15.6736 6 15.3605 6.10536 15.1297 6.29289C14.8989 6.48043 14.7692 6.73478 14.7692 7V8H11.0769C10.7505 8 10.4375 8.10536 10.2066 8.29289C9.97582 8.48043 9.84615 8.73478 9.84615 9C9.84615 9.26522 9.97582 9.51957 10.2066 9.70711C10.4375 9.89464 10.7505 10 11.0769 10H14.7692V12H8.61538C8.28896 12 7.97591 12.1054 7.7451 12.2929C7.51429 12.4804 7.38462 12.7348 7.38462 13C7.38462 13.2652 7.51429 13.5196 7.7451 13.7071C7.97591 13.8946 8.28896 14 8.61538 14H14.7692V16H8.61538C8.28896 16 7.97591 16.1054 7.7451 16.2929C7.51429 16.4804 7.38462 16.7348 7.38462 17C7.38462 17.2652 7.51429 17.5196 7.7451 17.7071C7.97591 17.8946 8.28896 18 8.61538 18H14.7692V20H11.0769C10.2932 20.0003 9.52997 20.2033 8.89763 20.5794C8.26529 20.9556 7.79667 21.4855 7.55957 22.0924C7.32248 22.6993 7.32921 23.3518 7.5788 23.9554C7.82839 24.559 8.30788 25.0824 8.94789 25.4499C9.58791 25.8174 10.3552 26.0099 11.1388 25.9996C11.9224 25.9893 12.6817 25.7766 13.3067 25.3924C13.9316 25.0082 14.3899 24.4724 14.6153 23.8625C14.8406 23.2527 14.8212 22.6003 14.56 22H17.44C17.1788 22.6003 17.1594 23.2527 17.3847 23.8625C17.6101 24.4724 18.0684 25.0082 18.6934 25.3924C19.3183 25.7766 20.0776 25.9893 20.8612 25.9996C21.6448 26.0099 22.4121 25.8174 23.0521 25.4499C23.6921 25.0824 24.1716 24.559 24.4212 23.9554C24.6708 23.3518 24.6775 22.6993 24.4404 22.0924C24.2033 21.4855 23.7347 20.9556 23.1024 20.5794C22.47 20.2033 21.7068 20.0003 20.9231 20H17.2308V18H23.3846C23.711 18 24.0241 17.8946 24.2549 17.7071C24.4857 17.5196 24.6154 17.2652 24.6154 17C24.6154 16.7348 24.4857 16.4804 24.2549 16.2929C24.0241 16.1054 23.711 16 23.3846 16H17.2308V14H23.3846C23.711 14 24.0241 13.8946 24.2549 13.7071C24.4857 13.5196 24.6154 13.2652 24.6154 13C24.6154 12.7348 24.4857 12.4804 24.2549 12.2929C24.0241 12.1054 23.711 12 23.3846 12H17.2308V10H20.9231C21.2495 10 21.5625 9.89464 21.7934 9.70711C22.0242 9.51957 22.1538 9.26522 22.1538 9C22.1538 8.73478 22.0242 8.48043 21.7934 8.29289C21.5625 8.10536 21.2495 8 20.9231 8H17.2308V7Z" fill="white"/>
</svg>
